<mxfile host="app.diagrams.net" modified="2024-02-15T13:29:17.159Z" agent="Mozilla/5.0 (Windows NT 10.0; Win64; x64) AppleWebKit/537.36 (KHTML, like Gecko) Chrome/121.0.0.0 Safari/537.36" etag="qzRo1zTjgdZQ402gKQNd" version="23.1.4" type="device">
  <diagram name="Page-1" id="YnzdXZGGdSsKxX0sG3py">
    <mxGraphModel dx="1335" dy="864" grid="1" gridSize="10" guides="1" tooltips="1" connect="1" arrows="1" fold="1" page="1" pageScale="1" pageWidth="850" pageHeight="1100" background="none" math="0" shadow="0">
      <root>
        <mxCell id="0" />
        <mxCell id="1" parent="0" />
        <mxCell id="VhJA7Kd5jVIp0lMXF9Xg-35" value="" style="endArrow=classic;html=1;rounded=0;fontSize=12;startSize=8;endSize=8;exitX=0.508;exitY=0.585;exitDx=0;exitDy=0;exitPerimeter=0;entryX=0.5;entryY=0;entryDx=0;entryDy=0;" parent="1" source="VhJA7Kd5jVIp0lMXF9Xg-29" target="VhJA7Kd5jVIp0lMXF9Xg-36" edge="1">
          <mxGeometry width="50" height="50" relative="1" as="geometry">
            <mxPoint x="592" y="930" as="sourcePoint" />
            <mxPoint x="592" y="1000" as="targetPoint" />
          </mxGeometry>
        </mxCell>
        <mxCell id="VhJA7Kd5jVIp0lMXF9Xg-28" value="" style="endArrow=classic;html=1;rounded=0;fontSize=12;startSize=8;endSize=8;exitX=0.833;exitY=0.638;exitDx=0;exitDy=0;exitPerimeter=0;entryX=0.5;entryY=0;entryDx=0;entryDy=0;" parent="1" source="VhJA7Kd5jVIp0lMXF9Xg-16" target="VhJA7Kd5jVIp0lMXF9Xg-20" edge="1">
          <mxGeometry width="50" height="50" relative="1" as="geometry">
            <mxPoint x="751.91" y="650" as="sourcePoint" />
            <mxPoint x="753" y="710" as="targetPoint" />
          </mxGeometry>
        </mxCell>
        <mxCell id="VhJA7Kd5jVIp0lMXF9Xg-26" value="" style="endArrow=classic;html=1;rounded=0;fontSize=12;startSize=8;endSize=8;exitX=0.664;exitY=0.623;exitDx=0;exitDy=0;exitPerimeter=0;entryX=0.5;entryY=0;entryDx=0;entryDy=0;" parent="1" source="VhJA7Kd5jVIp0lMXF9Xg-16" target="VhJA7Kd5jVIp0lMXF9Xg-22" edge="1">
          <mxGeometry width="50" height="50" relative="1" as="geometry">
            <mxPoint x="660" y="650" as="sourcePoint" />
            <mxPoint x="661" y="730" as="targetPoint" />
          </mxGeometry>
        </mxCell>
        <mxCell id="VhJA7Kd5jVIp0lMXF9Xg-25" value="" style="endArrow=classic;html=1;rounded=0;fontSize=12;startSize=8;endSize=8;exitX=0.483;exitY=0.653;exitDx=0;exitDy=0;exitPerimeter=0;entryX=0.5;entryY=0;entryDx=0;entryDy=0;" parent="1" source="VhJA7Kd5jVIp0lMXF9Xg-16" target="VhJA7Kd5jVIp0lMXF9Xg-19" edge="1">
          <mxGeometry width="50" height="50" relative="1" as="geometry">
            <mxPoint x="568.13" y="647" as="sourcePoint" />
            <mxPoint x="570" y="710" as="targetPoint" />
          </mxGeometry>
        </mxCell>
        <mxCell id="VhJA7Kd5jVIp0lMXF9Xg-24" value="" style="endArrow=classic;html=1;rounded=0;fontSize=12;startSize=8;endSize=8;exitX=0.122;exitY=0.595;exitDx=0;exitDy=0;entryX=0.5;entryY=0;entryDx=0;entryDy=0;exitPerimeter=0;" parent="1" source="VhJA7Kd5jVIp0lMXF9Xg-16" target="VhJA7Kd5jVIp0lMXF9Xg-18" edge="1">
          <mxGeometry width="50" height="50" relative="1" as="geometry">
            <mxPoint x="379.40999999999997" y="644" as="sourcePoint" />
            <mxPoint x="380.40999999999997" y="720" as="targetPoint" />
          </mxGeometry>
        </mxCell>
        <mxCell id="VhJA7Kd5jVIp0lMXF9Xg-23" value="" style="endArrow=classic;html=1;rounded=0;fontSize=12;startSize=8;endSize=8;entryX=0.5;entryY=0;entryDx=0;entryDy=0;exitX=0.298;exitY=0.522;exitDx=0;exitDy=0;exitPerimeter=0;" parent="1" source="VhJA7Kd5jVIp0lMXF9Xg-16" target="VhJA7Kd5jVIp0lMXF9Xg-21" edge="1">
          <mxGeometry width="50" height="50" relative="1" as="geometry">
            <mxPoint x="473" y="640" as="sourcePoint" />
            <mxPoint x="460" y="714" as="targetPoint" />
          </mxGeometry>
        </mxCell>
        <mxCell id="VhJA7Kd5jVIp0lMXF9Xg-16" value="" style="shape=line;html=1;strokeWidth=6;strokeColor=#ff0000;labelBackgroundColor=none;fillColor=#99ff99;rotation=-90;direction=south;" parent="1" vertex="1">
          <mxGeometry x="568.13" y="374.36" width="20.31" height="525" as="geometry" />
        </mxCell>
        <mxCell id="VhJA7Kd5jVIp0lMXF9Xg-1" value="&lt;h1 style=&quot;line-height: 0%;&quot;&gt;&lt;span style=&quot;background-color: rgb(255, 255, 255);&quot;&gt;Activity Diagram For Admin Side&lt;/span&gt;&lt;/h1&gt;" style="rounded=0;whiteSpace=wrap;html=1;labelBackgroundColor=#66FF66;strokeColor=#666666;fillColor=none;gradientColor=#b3b3b3;" parent="1" vertex="1">
          <mxGeometry x="194" y="40" width="797" height="60" as="geometry" />
        </mxCell>
        <mxCell id="VhJA7Kd5jVIp0lMXF9Xg-2" value="" style="ellipse;html=1;shape=startState;fillColor=#000000;strokeColor=#f00000;strokeWidth=3;fillStyle=auto;" parent="1" vertex="1">
          <mxGeometry x="577.5" y="160" width="30" height="30" as="geometry" />
        </mxCell>
        <mxCell id="VhJA7Kd5jVIp0lMXF9Xg-3" value="" style="edgeStyle=orthogonalEdgeStyle;html=1;verticalAlign=bottom;endArrow=open;endSize=8;strokeColor=#000000;rounded=0;fontSize=12;entryX=0.5;entryY=0;entryDx=0;entryDy=0;" parent="1" source="VhJA7Kd5jVIp0lMXF9Xg-2" target="VhJA7Kd5jVIp0lMXF9Xg-4" edge="1">
          <mxGeometry relative="1" as="geometry">
            <mxPoint x="592.5" y="250" as="targetPoint" />
          </mxGeometry>
        </mxCell>
        <mxCell id="VhJA7Kd5jVIp0lMXF9Xg-4" value="&lt;b&gt;&lt;font style=&quot;font-size: 17px;&quot;&gt;Login&lt;/font&gt;&lt;/b&gt;" style="rounded=1;whiteSpace=wrap;html=1;" parent="1" vertex="1">
          <mxGeometry x="512.5" y="260" width="160" height="40" as="geometry" />
        </mxCell>
        <mxCell id="VhJA7Kd5jVIp0lMXF9Xg-6" value="&lt;b&gt;&lt;font style=&quot;font-size: 15px;&quot;&gt;is&lt;br&gt;Valid&lt;/font&gt;&lt;/b&gt;" style="rhombus;whiteSpace=wrap;html=1;" parent="1" vertex="1">
          <mxGeometry x="552.5" y="370" width="80" height="80" as="geometry" />
        </mxCell>
        <mxCell id="VhJA7Kd5jVIp0lMXF9Xg-7" value="" style="endArrow=classic;html=1;rounded=0;fontSize=12;startSize=8;endSize=8;exitX=0.5;exitY=1;exitDx=0;exitDy=0;entryX=0.5;entryY=0;entryDx=0;entryDy=0;" parent="1" source="VhJA7Kd5jVIp0lMXF9Xg-4" target="VhJA7Kd5jVIp0lMXF9Xg-6" edge="1">
          <mxGeometry width="50" height="50" relative="1" as="geometry">
            <mxPoint x="420" y="510" as="sourcePoint" />
            <mxPoint x="470" y="460" as="targetPoint" />
          </mxGeometry>
        </mxCell>
        <mxCell id="VhJA7Kd5jVIp0lMXF9Xg-8" value="" style="endArrow=classic;html=1;rounded=0;fontSize=12;startSize=8;endSize=8;exitX=0.5;exitY=1;exitDx=0;exitDy=0;entryX=0.5;entryY=0;entryDx=0;entryDy=0;" parent="1" source="VhJA7Kd5jVIp0lMXF9Xg-6" target="VhJA7Kd5jVIp0lMXF9Xg-14" edge="1">
          <mxGeometry width="50" height="50" relative="1" as="geometry">
            <mxPoint x="592.3" y="450" as="sourcePoint" />
            <mxPoint x="592.3" y="520" as="targetPoint" />
          </mxGeometry>
        </mxCell>
        <mxCell id="VhJA7Kd5jVIp0lMXF9Xg-9" value="Yes" style="text;html=1;align=center;verticalAlign=middle;whiteSpace=wrap;rounded=0;;fontSize=16;" parent="1" vertex="1">
          <mxGeometry x="547.5" y="450" width="60" height="30" as="geometry" />
        </mxCell>
        <mxCell id="VhJA7Kd5jVIp0lMXF9Xg-10" value="" style="endArrow=classic;html=1;rounded=0;fontSize=12;startSize=8;endSize=8;exitX=1;exitY=0.5;exitDx=0;exitDy=0;entryX=0.5;entryY=1;entryDx=0;entryDy=0;" parent="1" source="VhJA7Kd5jVIp0lMXF9Xg-6" target="VhJA7Kd5jVIp0lMXF9Xg-11" edge="1">
          <mxGeometry width="50" height="50" relative="1" as="geometry">
            <mxPoint x="640" y="409.66" as="sourcePoint" />
            <mxPoint x="699.3" y="409.66" as="targetPoint" />
            <Array as="points">
              <mxPoint x="790" y="410" />
            </Array>
          </mxGeometry>
        </mxCell>
        <mxCell id="VhJA7Kd5jVIp0lMXF9Xg-11" value="&lt;font style=&quot;&quot;&gt;&lt;b style=&quot;&quot;&gt;&lt;font style=&quot;font-size: 13px;&quot;&gt;alert&lt;/font&gt;&lt;span style=&quot;font-size: 15px;&quot;&gt;: &lt;/span&gt;&lt;/b&gt;&lt;/font&gt;&lt;font style=&quot;font-weight: bold; font-size: 17px;&quot;&gt;Login Failed&lt;/font&gt;" style="rounded=1;whiteSpace=wrap;html=1;" parent="1" vertex="1">
          <mxGeometry x="710" y="321" width="160" height="40" as="geometry" />
        </mxCell>
        <mxCell id="VhJA7Kd5jVIp0lMXF9Xg-12" value="" style="endArrow=classic;html=1;rounded=0;fontSize=12;startSize=8;endSize=8;exitX=0.5;exitY=0;exitDx=0;exitDy=0;entryX=1;entryY=0.5;entryDx=0;entryDy=0;" parent="1" source="VhJA7Kd5jVIp0lMXF9Xg-11" target="VhJA7Kd5jVIp0lMXF9Xg-4" edge="1">
          <mxGeometry width="50" height="50" relative="1" as="geometry">
            <mxPoint x="700" y="380" as="sourcePoint" />
            <mxPoint x="750" y="330" as="targetPoint" />
            <Array as="points">
              <mxPoint x="790" y="280" />
            </Array>
          </mxGeometry>
        </mxCell>
        <mxCell id="VhJA7Kd5jVIp0lMXF9Xg-13" value="No" style="text;html=1;align=center;verticalAlign=middle;whiteSpace=wrap;rounded=0;;fontSize=16;" parent="1" vertex="1">
          <mxGeometry x="634.5" y="384" width="60" height="30" as="geometry" />
        </mxCell>
        <mxCell id="VhJA7Kd5jVIp0lMXF9Xg-14" value="&lt;span style=&quot;font-size: 17px;&quot;&gt;&lt;b&gt;Admin Deskbord&lt;/b&gt;&lt;/span&gt;" style="rounded=1;whiteSpace=wrap;html=1;" parent="1" vertex="1">
          <mxGeometry x="512.5" y="520" width="160" height="40" as="geometry" />
        </mxCell>
        <mxCell id="VhJA7Kd5jVIp0lMXF9Xg-15" value="" style="endArrow=classic;html=1;rounded=0;fontSize=12;startSize=8;endSize=8;exitX=0.5;exitY=1;exitDx=0;exitDy=0;entryX=0.528;entryY=0.459;entryDx=0;entryDy=0;entryPerimeter=0;" parent="1" source="VhJA7Kd5jVIp0lMXF9Xg-14" target="VhJA7Kd5jVIp0lMXF9Xg-16" edge="1">
          <mxGeometry width="50" height="50" relative="1" as="geometry">
            <mxPoint x="592.91" y="560" as="sourcePoint" />
            <mxPoint x="593" y="630" as="targetPoint" />
          </mxGeometry>
        </mxCell>
        <mxCell id="VhJA7Kd5jVIp0lMXF9Xg-18" value="&lt;span style=&quot;font-size: 17px;&quot;&gt;&lt;b&gt;Search Clients&lt;/b&gt;&lt;/span&gt;" style="rounded=1;whiteSpace=wrap;html=1;" parent="1" vertex="1">
          <mxGeometry x="300" y="720" width="160" height="40" as="geometry" />
        </mxCell>
        <mxCell id="VhJA7Kd5jVIp0lMXF9Xg-19" value="&lt;span style=&quot;font-size: 17px;&quot;&gt;&lt;b&gt;Show Clients&lt;/b&gt;&lt;/span&gt;" style="rounded=1;whiteSpace=wrap;html=1;" parent="1" vertex="1">
          <mxGeometry x="490" y="720" width="160" height="40" as="geometry" />
        </mxCell>
        <mxCell id="VhJA7Kd5jVIp0lMXF9Xg-20" value="&lt;span style=&quot;font-size: 17px;&quot;&gt;&lt;b&gt;Delete Client&lt;/b&gt;&lt;/span&gt;" style="rounded=1;whiteSpace=wrap;html=1;" parent="1" vertex="1">
          <mxGeometry x="672.5" y="720" width="160" height="40" as="geometry" />
        </mxCell>
        <mxCell id="VhJA7Kd5jVIp0lMXF9Xg-21" value="&lt;span style=&quot;font-size: 17px;&quot;&gt;&lt;b&gt;Update Client&lt;/b&gt;&lt;/span&gt;" style="rounded=1;whiteSpace=wrap;html=1;" parent="1" vertex="1">
          <mxGeometry x="392.5" y="800" width="160" height="40" as="geometry" />
        </mxCell>
        <mxCell id="VhJA7Kd5jVIp0lMXF9Xg-22" value="&lt;span style=&quot;font-size: 17px;&quot;&gt;&lt;b&gt;Add Client&lt;/b&gt;&lt;/span&gt;" style="rounded=1;whiteSpace=wrap;html=1;" parent="1" vertex="1">
          <mxGeometry x="584.5" y="800" width="160" height="40" as="geometry" />
        </mxCell>
        <mxCell id="VhJA7Kd5jVIp0lMXF9Xg-29" value="" style="shape=line;html=1;strokeWidth=6;strokeColor=#ff0000;labelBackgroundColor=none;fillColor=#99ff99;rotation=-90;direction=south;" parent="1" vertex="1">
          <mxGeometry x="577.5" y="660" width="20.31" height="525" as="geometry" />
        </mxCell>
        <mxCell id="VhJA7Kd5jVIp0lMXF9Xg-30" value="" style="endArrow=classic;html=1;rounded=0;fontSize=12;startSize=8;endSize=8;exitX=0.5;exitY=1;exitDx=0;exitDy=0;entryX=0.464;entryY=0.471;entryDx=0;entryDy=0;entryPerimeter=0;" parent="1" source="VhJA7Kd5jVIp0lMXF9Xg-21" target="VhJA7Kd5jVIp0lMXF9Xg-29" edge="1">
          <mxGeometry width="50" height="50" relative="1" as="geometry">
            <mxPoint x="480" y="840" as="sourcePoint" />
            <mxPoint x="480" y="921" as="targetPoint" />
          </mxGeometry>
        </mxCell>
        <mxCell id="VhJA7Kd5jVIp0lMXF9Xg-31" value="" style="endArrow=classic;html=1;rounded=0;fontSize=12;startSize=8;endSize=8;exitX=0.5;exitY=1;exitDx=0;exitDy=0;entryX=0.465;entryY=0.377;entryDx=0;entryDy=0;entryPerimeter=0;" parent="1" source="VhJA7Kd5jVIp0lMXF9Xg-19" target="VhJA7Kd5jVIp0lMXF9Xg-29" edge="1">
          <mxGeometry width="50" height="50" relative="1" as="geometry">
            <mxPoint x="568.13" y="790" as="sourcePoint" />
            <mxPoint x="569.13" y="870" as="targetPoint" />
          </mxGeometry>
        </mxCell>
        <mxCell id="VhJA7Kd5jVIp0lMXF9Xg-32" value="" style="endArrow=classic;html=1;rounded=0;fontSize=12;startSize=8;endSize=8;exitX=0.5;exitY=1;exitDx=0;exitDy=0;entryX=0.468;entryY=0.428;entryDx=0;entryDy=0;entryPerimeter=0;" parent="1" source="VhJA7Kd5jVIp0lMXF9Xg-22" target="VhJA7Kd5jVIp0lMXF9Xg-29" edge="1">
          <mxGeometry width="50" height="50" relative="1" as="geometry">
            <mxPoint x="483" y="850" as="sourcePoint" />
            <mxPoint x="580" y="910" as="targetPoint" />
          </mxGeometry>
        </mxCell>
        <mxCell id="VhJA7Kd5jVIp0lMXF9Xg-33" value="" style="endArrow=classic;html=1;rounded=0;fontSize=12;startSize=8;endSize=8;exitX=0.5;exitY=1;exitDx=0;exitDy=0;entryX=0.442;entryY=0.385;entryDx=0;entryDy=0;entryPerimeter=0;" parent="1" source="VhJA7Kd5jVIp0lMXF9Xg-18" target="VhJA7Kd5jVIp0lMXF9Xg-29" edge="1">
          <mxGeometry width="50" height="50" relative="1" as="geometry">
            <mxPoint x="360" y="760" as="sourcePoint" />
            <mxPoint x="360" y="841" as="targetPoint" />
            <Array as="points">
              <mxPoint x="380" y="880" />
            </Array>
          </mxGeometry>
        </mxCell>
        <mxCell id="VhJA7Kd5jVIp0lMXF9Xg-34" value="" style="endArrow=classic;html=1;rounded=0;fontSize=12;startSize=8;endSize=8;exitX=0.5;exitY=1;exitDx=0;exitDy=0;entryX=0.49;entryY=0.409;entryDx=0;entryDy=0;entryPerimeter=0;" parent="1" source="VhJA7Kd5jVIp0lMXF9Xg-20" target="VhJA7Kd5jVIp0lMXF9Xg-29" edge="1">
          <mxGeometry width="50" height="50" relative="1" as="geometry">
            <mxPoint x="763" y="650" as="sourcePoint" />
            <mxPoint x="763" y="730" as="targetPoint" />
            <Array as="points">
              <mxPoint x="750" y="860" />
            </Array>
          </mxGeometry>
        </mxCell>
        <mxCell id="VhJA7Kd5jVIp0lMXF9Xg-36" value="&lt;span style=&quot;font-size: 17px;&quot;&gt;&lt;b&gt;Logout&lt;/b&gt;&lt;/span&gt;" style="rounded=1;whiteSpace=wrap;html=1;" parent="1" vertex="1">
          <mxGeometry x="512.5" y="1007" width="160" height="40" as="geometry" />
        </mxCell>
        <mxCell id="VhJA7Kd5jVIp0lMXF9Xg-37" value="&lt;span style=&quot;font-size: 15px;&quot;&gt;&lt;b&gt;Confirm&lt;/b&gt;&lt;/span&gt;" style="rhombus;whiteSpace=wrap;html=1;" parent="1" vertex="1">
          <mxGeometry x="552.5" y="1130" width="80" height="80" as="geometry" />
        </mxCell>
        <mxCell id="VhJA7Kd5jVIp0lMXF9Xg-38" value="" style="endArrow=classic;html=1;rounded=0;fontSize=12;startSize=8;endSize=8;exitX=0.5;exitY=1;exitDx=0;exitDy=0;entryX=0.5;entryY=0;entryDx=0;entryDy=0;" parent="1" source="VhJA7Kd5jVIp0lMXF9Xg-36" target="VhJA7Kd5jVIp0lMXF9Xg-37" edge="1">
          <mxGeometry width="50" height="50" relative="1" as="geometry">
            <mxPoint x="590" y="1050" as="sourcePoint" />
            <mxPoint x="590" y="1120" as="targetPoint" />
          </mxGeometry>
        </mxCell>
        <mxCell id="VhJA7Kd5jVIp0lMXF9Xg-39" value="" style="ellipse;html=1;shape=endState;fillColor=#000000;strokeColor=#ff0000;" parent="1" vertex="1">
          <mxGeometry x="577.5" y="1290" width="30" height="30" as="geometry" />
        </mxCell>
        <mxCell id="VhJA7Kd5jVIp0lMXF9Xg-40" value="" style="endArrow=classic;html=1;rounded=0;fontSize=12;startSize=8;endSize=8;exitX=0.5;exitY=1;exitDx=0;exitDy=0;entryX=0.5;entryY=0;entryDx=0;entryDy=0;" parent="1" source="VhJA7Kd5jVIp0lMXF9Xg-37" target="VhJA7Kd5jVIp0lMXF9Xg-39" edge="1">
          <mxGeometry width="50" height="50" relative="1" as="geometry">
            <mxPoint x="592" y="1210" as="sourcePoint" />
            <mxPoint x="592" y="1293" as="targetPoint" />
          </mxGeometry>
        </mxCell>
        <mxCell id="VhJA7Kd5jVIp0lMXF9Xg-41" value="Yes" style="text;html=1;align=center;verticalAlign=middle;whiteSpace=wrap;rounded=0;;fontSize=16;" parent="1" vertex="1">
          <mxGeometry x="587" y="1210" width="60" height="30" as="geometry" />
        </mxCell>
        <mxCell id="VhJA7Kd5jVIp0lMXF9Xg-42" value="" style="endArrow=classic;html=1;rounded=0;fontSize=12;startSize=8;endSize=8;exitX=0;exitY=0.5;exitDx=0;exitDy=0;entryX=0;entryY=0.5;entryDx=0;entryDy=0;" parent="1" source="VhJA7Kd5jVIp0lMXF9Xg-37" target="VhJA7Kd5jVIp0lMXF9Xg-14" edge="1">
          <mxGeometry width="50" height="50" relative="1" as="geometry">
            <mxPoint x="490" y="1150" as="sourcePoint" />
            <mxPoint x="490" y="1230" as="targetPoint" />
            <Array as="points">
              <mxPoint x="280" y="1170" />
              <mxPoint x="280" y="540" />
            </Array>
          </mxGeometry>
        </mxCell>
        <mxCell id="VhJA7Kd5jVIp0lMXF9Xg-43" value="No" style="text;html=1;align=center;verticalAlign=middle;whiteSpace=wrap;rounded=0;;fontSize=16;" parent="1" vertex="1">
          <mxGeometry x="486" y="1142" width="60" height="30" as="geometry" />
        </mxCell>
      </root>
    </mxGraphModel>
  </diagram>
</mxfile>
